<mxfile host="app.diagrams.net" agent="Mozilla/5.0 (Windows NT 10.0; Win64; x64) AppleWebKit/537.36 (KHTML, like Gecko) Chrome/131.0.0.0 Safari/537.36" version="24.8.6">
  <diagram id="C5RBs43oDa-KdzZeNtuy" name="Page-1">
    <mxGraphModel dx="1221" dy="945" grid="1" gridSize="10" guides="1" tooltips="1" connect="1" arrows="1" fold="1" page="1" pageScale="1" pageWidth="827" pageHeight="1169" math="0" shadow="0">
      <root>
        <mxCell id="WIyWlLk6GJQsqaUBKTNV-0" />
        <mxCell id="WIyWlLk6GJQsqaUBKTNV-1" parent="WIyWlLk6GJQsqaUBKTNV-0" />
        <mxCell id="zkfFHV4jXpPFQw0GAbJ--0" value="Game&#xa;" style="swimlane;fontStyle=2;align=center;verticalAlign=top;childLayout=stackLayout;horizontal=1;startSize=26;horizontalStack=0;resizeParent=1;resizeLast=0;collapsible=1;marginBottom=0;rounded=0;shadow=0;strokeWidth=1;" parent="WIyWlLk6GJQsqaUBKTNV-1" vertex="1">
          <mxGeometry x="330" y="110" width="220" height="360" as="geometry">
            <mxRectangle x="230" y="140" width="160" height="26" as="alternateBounds" />
          </mxGeometry>
        </mxCell>
        <mxCell id="zkfFHV4jXpPFQw0GAbJ--1" value="+ GameState gameState;" style="text;align=left;verticalAlign=top;spacingLeft=4;spacingRight=4;overflow=hidden;rotatable=0;points=[[0,0.5],[1,0.5]];portConstraint=eastwest;" parent="zkfFHV4jXpPFQw0GAbJ--0" vertex="1">
          <mxGeometry y="26" width="220" height="26" as="geometry" />
        </mxCell>
        <mxCell id="zkfFHV4jXpPFQw0GAbJ--2" value="+ ShipManager&amp; userManager;  " style="text;align=left;verticalAlign=top;spacingLeft=4;spacingRight=4;overflow=hidden;rotatable=0;points=[[0,0.5],[1,0.5]];portConstraint=eastwest;rounded=0;shadow=0;html=0;" parent="zkfFHV4jXpPFQw0GAbJ--0" vertex="1">
          <mxGeometry y="52" width="220" height="26" as="geometry" />
        </mxCell>
        <mxCell id="zkfFHV4jXpPFQw0GAbJ--3" value="+  ShipManager&amp; enemyManager;" style="text;align=left;verticalAlign=top;spacingLeft=4;spacingRight=4;overflow=hidden;rotatable=0;points=[[0,0.5],[1,0.5]];portConstraint=eastwest;rounded=0;shadow=0;html=0;" parent="zkfFHV4jXpPFQw0GAbJ--0" vertex="1">
          <mxGeometry y="78" width="220" height="26" as="geometry" />
        </mxCell>
        <mxCell id="G9Ku_yvCjE1Pz7wb2Wqz-1" value="+ bool isRunning;" style="text;align=left;verticalAlign=top;spacingLeft=4;spacingRight=4;overflow=hidden;rotatable=0;points=[[0,0.5],[1,0.5]];portConstraint=eastwest;rounded=0;shadow=0;html=0;" vertex="1" parent="zkfFHV4jXpPFQw0GAbJ--0">
          <mxGeometry y="104" width="220" height="26" as="geometry" />
        </mxCell>
        <mxCell id="zkfFHV4jXpPFQw0GAbJ--4" value="" style="line;html=1;strokeWidth=1;align=left;verticalAlign=middle;spacingTop=-1;spacingLeft=3;spacingRight=3;rotatable=0;labelPosition=right;points=[];portConstraint=eastwest;" parent="zkfFHV4jXpPFQw0GAbJ--0" vertex="1">
          <mxGeometry y="130" width="220" height="8" as="geometry" />
        </mxCell>
        <mxCell id="zkfFHV4jXpPFQw0GAbJ--5" value="- Game(ShipManager&amp; userManager, &#xa;ShipManager&amp; enemyManager);" style="text;align=left;verticalAlign=top;spacingLeft=4;spacingRight=4;overflow=hidden;rotatable=0;points=[[0,0.5],[1,0.5]];portConstraint=eastwest;" parent="zkfFHV4jXpPFQw0GAbJ--0" vertex="1">
          <mxGeometry y="138" width="220" height="42" as="geometry" />
        </mxCell>
        <mxCell id="G9Ku_yvCjE1Pz7wb2Wqz-2" value="- void startNewGame();&#xa;- void endGame();&#xa;- void makeMove();&#xa;- void playerTurn();&#xa;- void enemyTurn();&#xa;- void saveGame(const std::string&amp; filename);&#xa;- void loadGame(const std::string&amp; filename);&#xa;- bool isGameRunning() const;&#xa;- const GameState&amp; getGameState() const;&#xa;- void startNewRound();&#xa;- void displayGameState() const;&#xa;- void run();" style="text;align=left;verticalAlign=top;spacingLeft=4;spacingRight=4;overflow=hidden;rotatable=0;points=[[0,0.5],[1,0.5]];portConstraint=eastwest;" vertex="1" parent="zkfFHV4jXpPFQw0GAbJ--0">
          <mxGeometry y="180" width="220" height="180" as="geometry" />
        </mxCell>
        <mxCell id="G9Ku_yvCjE1Pz7wb2Wqz-27" style="edgeStyle=orthogonalEdgeStyle;rounded=0;orthogonalLoop=1;jettySize=auto;html=1;" edge="1" parent="WIyWlLk6GJQsqaUBKTNV-1" source="G9Ku_yvCjE1Pz7wb2Wqz-4" target="G9Ku_yvCjE1Pz7wb2Wqz-25">
          <mxGeometry relative="1" as="geometry" />
        </mxCell>
        <mxCell id="G9Ku_yvCjE1Pz7wb2Wqz-28" style="edgeStyle=orthogonalEdgeStyle;rounded=0;orthogonalLoop=1;jettySize=auto;html=1;entryX=0.5;entryY=0;entryDx=0;entryDy=0;" edge="1" parent="WIyWlLk6GJQsqaUBKTNV-1" source="G9Ku_yvCjE1Pz7wb2Wqz-4" target="G9Ku_yvCjE1Pz7wb2Wqz-26">
          <mxGeometry relative="1" as="geometry" />
        </mxCell>
        <mxCell id="G9Ku_yvCjE1Pz7wb2Wqz-4" value="GameState" style="swimlane;fontStyle=2;align=center;verticalAlign=top;childLayout=stackLayout;horizontal=1;startSize=26;horizontalStack=0;resizeParent=1;resizeLast=0;collapsible=1;marginBottom=0;rounded=0;shadow=0;strokeWidth=1;" vertex="1" parent="WIyWlLk6GJQsqaUBKTNV-1">
          <mxGeometry x="780" y="70" width="340" height="530" as="geometry">
            <mxRectangle x="230" y="140" width="160" height="26" as="alternateBounds" />
          </mxGeometry>
        </mxCell>
        <mxCell id="G9Ku_yvCjE1Pz7wb2Wqz-8" value="+ GameField userField; &#xa;+ GameField enemyField;&#xa;+ AbilityManager abilityManager; &#xa;+ ShipManager&amp; userManager;&#xa;+ ShipManager&amp; enemyManager;&#xa;+ bool isUserTurn;&#xa;+ bool gameOver; &#xa;+ int roundNumber;" style="text;align=left;verticalAlign=top;spacingLeft=4;spacingRight=4;overflow=hidden;rotatable=0;points=[[0,0.5],[1,0.5]];portConstraint=eastwest;rounded=0;shadow=0;html=0;" vertex="1" parent="G9Ku_yvCjE1Pz7wb2Wqz-4">
          <mxGeometry y="26" width="340" height="134" as="geometry" />
        </mxCell>
        <mxCell id="G9Ku_yvCjE1Pz7wb2Wqz-9" value="" style="line;html=1;strokeWidth=1;align=left;verticalAlign=middle;spacingTop=-1;spacingLeft=3;spacingRight=3;rotatable=0;labelPosition=right;points=[];portConstraint=eastwest;" vertex="1" parent="G9Ku_yvCjE1Pz7wb2Wqz-4">
          <mxGeometry y="160" width="340" height="20" as="geometry" />
        </mxCell>
        <mxCell id="G9Ku_yvCjE1Pz7wb2Wqz-11" value=" - GameState(int fieldWidth, int fieldHeight, ShipManager&amp; &#xa;userManager, ShipManager&amp; enemyManager);&#xa; - void reset(ShipManager&amp; userManager, &#xa;ShipManager&amp; enemyManager); &#xa; - void toggleTurn();&#xa; - void applyAbility(); &#xa; - void enemyAttack(); &#xa; - void attackEnemy(int x, int y); &#xa; - void saveToFile(const std::string&amp; filename) const;&#xa; - static GameState loadFromFile(const std::string&amp; filename,&#xa; ShipManager&amp; userManager, ShipManager&amp; enemyManager);&#xa;- void setGameOver(bool isGameOver);&#xa;- bool isGameOver() const;&#xa;- bool getUserTurn() const;&#xa;- void incrementRound();&#xa;- int getRoundNumber() const;&#xa;- const GameField&amp; getUserField() const;&#xa;- const GameField&amp; getEnemyField() const;&#xa;- void placeUserShips();&#xa;- void placeEnemyShips(); &#xa;- friend std::ostream&amp; operator&lt;&lt;(std::ostream&amp; os,&#xa; const GameState&amp; gameState);&#xa;- friend std::istream&amp; operator&gt;&gt;(std::istream&amp; is, &#xa;GameState&amp; gameState);" style="text;align=left;verticalAlign=top;spacingLeft=4;spacingRight=4;overflow=hidden;rotatable=0;points=[[0,0.5],[1,0.5]];portConstraint=eastwest;" vertex="1" parent="G9Ku_yvCjE1Pz7wb2Wqz-4">
          <mxGeometry y="180" width="340" height="350" as="geometry" />
        </mxCell>
        <mxCell id="G9Ku_yvCjE1Pz7wb2Wqz-12" value="" style="endArrow=diamondThin;endFill=0;endSize=24;html=1;rounded=0;exitX=0.991;exitY=0.044;exitDx=0;exitDy=0;exitPerimeter=0;entryX=0.006;entryY=0.194;entryDx=0;entryDy=0;entryPerimeter=0;" edge="1" parent="WIyWlLk6GJQsqaUBKTNV-1" source="zkfFHV4jXpPFQw0GAbJ--0" target="G9Ku_yvCjE1Pz7wb2Wqz-8">
          <mxGeometry width="160" relative="1" as="geometry">
            <mxPoint x="710" y="480" as="sourcePoint" />
            <mxPoint x="870" y="480" as="targetPoint" />
          </mxGeometry>
        </mxCell>
        <mxCell id="G9Ku_yvCjE1Pz7wb2Wqz-13" value="ShipManager" style="swimlane;fontStyle=0;childLayout=stackLayout;horizontal=1;startSize=26;fillColor=none;horizontalStack=0;resizeParent=1;resizeParentMax=0;resizeLast=0;collapsible=1;marginBottom=0;whiteSpace=wrap;html=1;" vertex="1" parent="WIyWlLk6GJQsqaUBKTNV-1">
          <mxGeometry x="414" y="690" width="140" height="52" as="geometry" />
        </mxCell>
        <mxCell id="G9Ku_yvCjE1Pz7wb2Wqz-21" style="edgeStyle=orthogonalEdgeStyle;rounded=0;orthogonalLoop=1;jettySize=auto;html=1;exitX=0;exitY=0.5;exitDx=0;exitDy=0;entryX=0.5;entryY=0;entryDx=0;entryDy=0;" edge="1" parent="WIyWlLk6GJQsqaUBKTNV-1" source="G9Ku_yvCjE1Pz7wb2Wqz-11" target="G9Ku_yvCjE1Pz7wb2Wqz-13">
          <mxGeometry relative="1" as="geometry">
            <Array as="points">
              <mxPoint x="780" y="550" />
              <mxPoint x="484" y="550" />
            </Array>
          </mxGeometry>
        </mxCell>
        <mxCell id="G9Ku_yvCjE1Pz7wb2Wqz-24" style="edgeStyle=orthogonalEdgeStyle;rounded=0;orthogonalLoop=1;jettySize=auto;html=1;entryX=0.5;entryY=0;entryDx=0;entryDy=0;exitX=0.295;exitY=1.011;exitDx=0;exitDy=0;exitPerimeter=0;" edge="1" parent="WIyWlLk6GJQsqaUBKTNV-1" source="G9Ku_yvCjE1Pz7wb2Wqz-2" target="G9Ku_yvCjE1Pz7wb2Wqz-13">
          <mxGeometry relative="1" as="geometry">
            <Array as="points">
              <mxPoint x="480" y="472" />
              <mxPoint x="480" y="580" />
              <mxPoint x="484" y="580" />
            </Array>
          </mxGeometry>
        </mxCell>
        <mxCell id="G9Ku_yvCjE1Pz7wb2Wqz-25" value="AbilityManager" style="swimlane;fontStyle=0;childLayout=stackLayout;horizontal=1;startSize=26;fillColor=none;horizontalStack=0;resizeParent=1;resizeParentMax=0;resizeLast=0;collapsible=1;marginBottom=0;whiteSpace=wrap;html=1;" vertex="1" parent="WIyWlLk6GJQsqaUBKTNV-1">
          <mxGeometry x="730" y="680" width="140" height="52" as="geometry" />
        </mxCell>
        <mxCell id="G9Ku_yvCjE1Pz7wb2Wqz-26" value="GameField" style="swimlane;fontStyle=0;childLayout=stackLayout;horizontal=1;startSize=26;fillColor=none;horizontalStack=0;resizeParent=1;resizeParentMax=0;resizeLast=0;collapsible=1;marginBottom=0;whiteSpace=wrap;html=1;" vertex="1" parent="WIyWlLk6GJQsqaUBKTNV-1">
          <mxGeometry x="970" y="680" width="140" height="52" as="geometry" />
        </mxCell>
      </root>
    </mxGraphModel>
  </diagram>
</mxfile>
